<?xml version="1.0" encoding="UTF-8"?>
<svg xmlns="http://www.w3.org/2000/svg" xmlns:xlink="http://www.w3.org/1999/xlink" width="50px" height="47px" viewBox="0 0 50 47" version="1.1">
<defs>
<filter id="alpha" filterUnits="objectBoundingBox" x="0%" y="0%" width="100%" height="100%">
  <feColorMatrix type="matrix" in="SourceGraphic" values="0 0 0 0 1 0 0 0 0 1 0 0 0 0 1 0 0 0 1 0"/>
</filter>
<mask id="mask0">
  <g filter="url(#alpha)">
<rect x="0" y="0" width="50" height="47" style="fill:rgb(0%,0%,0%);fill-opacity:0.301961;stroke:none;"/>
  </g>
</mask>
<linearGradient id="linear0" gradientUnits="userSpaceOnUse" x1="27.5" y1="3" x2="152" y2="63.5" gradientTransform="matrix(0.300623,0,0,0.30264,0.0482936,0)">
<stop offset="0.1" style="stop-color:rgb(46.27451%,70.196078%,88.235294%);stop-opacity:1;"/>
<stop offset="0.3" style="stop-color:rgb(86.27451%,94.901961%,99.215686%);stop-opacity:1;"/>
<stop offset="1" style="stop-color:rgb(46.27451%,70.196078%,88.235294%);stop-opacity:1;"/>
</linearGradient>
<clipPath id="clip1">
  <rect x="0" y="0" width="51" height="47"/>
</clipPath>
<g id="surface5" clip-path="url(#clip1)">
<path style=" stroke:none;fill-rule:nonzero;fill:url(#linear0);" d="M 49.050781 10.59375 C 49.050781 10.59375 33.117188 -1.210938 20.792969 1.511719 L 19.890625 1.816406 C 18.085938 2.421875 16.582031 3.328125 15.679688 4.539062 L 15.078125 5.449219 L 10.570312 13.316406 L 18.386719 14.828125 C 21.691406 16.949219 25.902344 17.855469 29.808594 16.949219 L 43.636719 19.671875 Z M 49.050781 10.59375 "/>
</g>
<mask id="mask1">
  <g filter="url(#alpha)">
<rect x="0" y="0" width="50" height="47" style="fill:rgb(0%,0%,0%);fill-opacity:0.301961;stroke:none;"/>
  </g>
</mask>
<linearGradient id="linear1" gradientUnits="userSpaceOnUse" x1="95.8" y1="32.6" x2="74" y2="105.2" gradientTransform="matrix(0.300623,0,0,0.30264,0.0482936,0)">
<stop offset="0" style="stop-color:rgb(46.27451%,70.196078%,88.235294%);stop-opacity:1;"/>
<stop offset="0.5" style="stop-color:rgb(26.27451%,46.666667%,73.333333%);stop-opacity:1;"/>
<stop offset="1" style="stop-color:rgb(12.156863%,23.137255%,46.666667%);stop-opacity:1;"/>
</linearGradient>
<clipPath id="clip2">
  <rect x="0" y="0" width="51" height="47"/>
</clipPath>
<g id="surface8" clip-path="url(#clip2)">
<path style=" stroke:none;fill-rule:nonzero;fill:url(#linear1);" d="M 15.679688 10.59375 L 14.476562 10.894531 C 9.367188 12.410156 7.863281 17.25 10.570312 21.488281 C 13.578125 25.421875 19.890625 27.539062 25 26.027344 L 43.636719 19.671875 C 43.636719 19.671875 27.707031 7.867188 15.679688 10.59375 Z M 15.679688 10.59375 "/>
</g>
<linearGradient id="linear2" gradientUnits="userSpaceOnUse" x1="18.4" y1="64.2" x2="144.3" y2="149.8" gradientTransform="matrix(0.300623,0,0,0.30264,0.0482936,0)">
<stop offset="0" style="stop-color:rgb(19.215686%,35.294118%,66.27451%);stop-opacity:1;"/>
<stop offset="0.5" style="stop-color:rgb(31.764706%,54.117647%,78.431373%);stop-opacity:1;"/>
<stop offset="1" style="stop-color:rgb(19.215686%,35.294118%,66.27451%);stop-opacity:1;"/>
</linearGradient>
<linearGradient id="linear3" gradientUnits="userSpaceOnUse" x1="75.2" y1="74.5" x2="24.4" y2="260.8" gradientTransform="matrix(0.300623,0,0,0.30264,0.0482936,0)">
<stop offset="0" style="stop-color:rgb(26.27451%,46.666667%,73.333333%);stop-opacity:1;"/>
<stop offset="0.5" style="stop-color:rgb(10.196078%,20%,41.960784%);stop-opacity:1;"/>
<stop offset="1" style="stop-color:rgb(10.196078%,20%,41.960784%);stop-opacity:1;"/>
</linearGradient>
</defs>
<g id="surface1">
<path style=" stroke:none;fill-rule:nonzero;fill:rgb(46.27451%,70.196078%,88.235294%);fill-opacity:1;" d="M 49.050781 10.59375 C 49.050781 10.59375 33.117188 -1.210938 20.792969 1.511719 L 19.890625 1.816406 C 18.085938 2.421875 16.582031 3.328125 15.679688 4.539062 L 15.078125 5.449219 L 10.570312 13.316406 L 18.386719 14.828125 C 21.691406 16.949219 25.902344 17.855469 29.808594 16.949219 L 43.636719 19.671875 Z M 49.050781 10.59375 "/>
<use xlink:href="#surface5" mask="url(#mask0)"/>
<path style=" stroke:none;fill-rule:nonzero;fill:rgb(31.764706%,54.117647%,78.431373%);fill-opacity:1;" d="M 15.679688 10.59375 L 14.476562 10.894531 C 9.367188 12.410156 7.863281 17.25 10.570312 21.488281 C 13.578125 25.421875 19.890625 27.539062 25 26.027344 L 43.636719 19.671875 C 43.636719 19.671875 27.707031 7.867188 15.679688 10.59375 Z M 15.679688 10.59375 "/>
<use xlink:href="#surface8" mask="url(#mask1)"/>
<path style=" stroke:none;fill-rule:nonzero;fill:url(#linear2);" d="M 40.332031 24.210938 C 35.265625 22.878906 31.417969 18.722656 30.453125 13.542969 C 29.488281 8.363281 31.582031 3.089844 35.824219 0 L 7.261719 25.722656 L 1.25 36.316406 L 34.921875 42.066406 L 40.933594 31.171875 C 42.136719 29.054688 41.835938 26.632812 40.332031 24.210938 Z M 40.332031 24.210938 "/>
<path style=" stroke:none;fill-rule:nonzero;fill:url(#linear3);" d="M 34.320312 34.804688 C 24.773438 36.058594 16.023438 29.28125 14.777344 19.671875 C 13.535156 10.0625 20.261719 1.253906 29.808594 0 L 1.25 36.316406 C 1.25 36.316406 17.183594 48.421875 29.507812 45.394531 L 30.410156 45.09375 C 35.523438 43.582031 37.324219 38.738281 34.320312 34.804688 Z M 34.320312 34.804688 "/>
</g>
</svg>
